# xmcd
#
# Track frame offsets: 
#        150
#        18856
#        42744
#
# Disc length: 1043 seconds
#
# Revision: 0
# Processed by: cddbd v1.5.2PL0 Copyright (c) Steve Scherf et al.
# Submitted via: ExactAudioCopy v1.0b3
#
DISCID=1e041103
DTITLE=Eden - Fever
DYEAR=1900
DGENRE=
TTITLE0=Fever (Club Club Radio Mix)
TTITLE1=Fever (Club Club Extended Mix)
TTITLE2=Fever (Trance Job Mix)
EXTD=
EXTT0=
EXTT1=
EXTT2=
PLAYORDER=
